HIERARCHY
ROOT Hips
{
	OFFSET 0.000000 0.000000 0.000000
	CHANNELS 6 Xposition Yposition Zposition Zrotation Yrotation Xrotation 
	JOINT LeftUpLeg_virtual
	{
		OFFSET 0.000000 0.000000 0.000000
		CHANNELS 3 Zrotation Yrotation Xrotation
		JOINT LeftUpLeg
		{
			OFFSET 8.479694 -4.795517 -0.379053
			CHANNELS 3 Zrotation Yrotation Xrotation
			JOINT LeftLeg
			{
				OFFSET 0.485052 -32.551468 0.112863
				CHANNELS 3 Zrotation Yrotation Xrotation
				JOINT LeftFoot
				{
					OFFSET 0.438033 -32.635670 -3.012641
					CHANNELS 3 Zrotation Yrotation Xrotation
					JOINT LeftToeBase
					{
						OFFSET 0.970169 -13.225353 11.864223
						CHANNELS 3 Zrotation Yrotation Xrotation
						End Site
						{
							OFFSET 0.000000 0.000000 0.000000
						}
					}
				}
			}
		}
	}
	JOINT RightUpLeg_virtual
	{
		OFFSET 0.000000 0.000000 0.000000
		CHANNELS 3 Zrotation Yrotation Xrotation
		JOINT RightUpLeg
		{
			OFFSET -8.479694 -4.795517 -0.379053
			CHANNELS 3 Zrotation Yrotation Xrotation
			JOINT RightLeg
			{
				OFFSET -0.484100 -32.551483 0.112903
				CHANNELS 3 Zrotation Yrotation Xrotation
				JOINT RightFoot
				{
					OFFSET -0.438985 -32.635651 -3.012681
					CHANNELS 3 Zrotation Yrotation Xrotation
					JOINT RightToeBase
					{
						OFFSET -0.970169 -13.225354 11.864223
						CHANNELS 3 Zrotation Yrotation Xrotation
						End Site
						{
							OFFSET 0.000000 0.000000 0.000000
						}
					}
				}
			}
		}
	}
	JOINT Spine_virtual
	{
		OFFSET 0.000000 0.000000 0.000000
		CHANNELS 3 Zrotation Yrotation Xrotation
		JOINT Spine
		{
			OFFSET 0.000000 7.722015 1.166203
			CHANNELS 3 Zrotation Yrotation Xrotation
			JOINT Spine1
			{
				OFFSET 0.000000 12.024086 0.248766
				CHANNELS 3 Zrotation Yrotation Xrotation
				JOINT Spine2
				{
					OFFSET -0.000000 11.503036 -0.491240
					CHANNELS 3 Zrotation Yrotation Xrotation
					JOINT Neck_virtual
					{
						OFFSET 0.000000 0.000000 0.000000
						CHANNELS 3 Zrotation Yrotation Xrotation
						JOINT Neck
						{
							OFFSET 0.000000 18.430687 -3.123054
							CHANNELS 3 Zrotation Yrotation Xrotation
							JOINT Head
							{
								OFFSET -0.000000 9.051071 1.034021
								CHANNELS 3 Zrotation Yrotation Xrotation
								End Site
								{
									OFFSET 0.000000 0.000000 0.000000
								}
							}
						}
					}
					JOINT LeftShoulder_virtual
					{
						OFFSET 0.000000 0.000000 0.000000
						CHANNELS 3 Zrotation Yrotation Xrotation
						JOINT LeftShoulder
						{
							OFFSET 6.197824 13.665230 -4.064723
							CHANNELS 3 Zrotation Yrotation Xrotation
							JOINT LeftArm
							{
								OFFSET 7.778132 -0.187073 -1.709282
								CHANNELS 3 Zrotation Yrotation Xrotation
								JOINT LeftForeArm
								{
									OFFSET 21.954697 0.000000 -2.041093
									CHANNELS 3 Zrotation Yrotation Xrotation
									JOINT LeftHand
									{
										OFFSET 22.992908 0.000000 -0.870901
										CHANNELS 3 Zrotation Yrotation Xrotation
										End Site
										{
											OFFSET 0.000000 0.000000 0.000000
										}
									}
								}
							}
						}
					}
					JOINT RightShoulder_virtual
					{
						OFFSET 0.000000 0.000000 0.000000
						CHANNELS 3 Zrotation Yrotation Xrotation
						JOINT RightShoulder
						{
							OFFSET -6.197824 13.665230 -4.064723
							CHANNELS 3 Zrotation Yrotation Xrotation
							JOINT RightArm
							{
								OFFSET -7.778132 -0.187073 -1.709282
								CHANNELS 3 Zrotation Yrotation Xrotation
								JOINT RightForeArm
								{
									OFFSET -21.954697 0.000000 -2.041093
									CHANNELS 3 Zrotation Yrotation Xrotation
									JOINT RightHand
									{
										OFFSET -22.992908 0.000000 -0.870901
										CHANNELS 3 Zrotation Yrotation Xrotation
										End Site
										{
											OFFSET 0.000000 0.000000 0.000000
										}
									}
								}
							}
						}
					}
				}
			}
		}
	}
}
MOTION
Frames: 4
Frame Time: 0.033333
-5.309155 79.951370 -67.919640 179.957631 -35.932983 -179.910857 -2.758811 5.546684 11.962394 -0.982206 -8.365860 -23.058020 3.630154 -2.813883 31.116020 -3.895941 -9.022425 -13.809932 0.000000 0.000000 0.000000 1.403693 5.799675 12.871514 -13.040447 5.299533 -44.405177 -0.333500 7.447568 37.772357 14.247110 10.108734 2.622008 0.000000 0.000000 0.000000 2.490781 8.296210 -2.933376 -1.085996 -4.901862 -6.196599 -0.530789 -4.511058 12.151917 -0.038958 -0.030783 0.059189 -0.570283 -3.266879 13.498851 -4.867264 -6.039682 -4.877807 0.000000 0.000000 0.000000 1.370616 -2.804436 10.487752 -4.787535 -3.515114 2.921975 -62.954571 -36.577507 47.103935 -18.050416 -75.411360 24.365008 0.000000 0.000000 0.000000 -3.475869 -0.718112 9.739455 18.537448 6.312758 -0.273686 63.556782 -10.524906 -29.675471 -170.477601 60.119632 -172.259119 0.000000 0.000000 0.000000 
-6.546093 79.778542 -69.407333 179.876611 -40.776769 -179.840097 -2.674538 4.961303 12.114557 -0.276738 -10.649044 -22.187644 3.138211 -2.996241 31.765301 -4.333902 -9.729131 -14.655675 0.000000 0.000000 0.000000 1.294211 5.816642 12.716684 -14.410325 7.603216 -45.815208 -0.569229 7.690884 36.533429 14.503970 9.198237 2.653447 0.000000 0.000000 0.000000 2.695063 8.330451 -2.907178 -0.876550 -4.766326 -6.585832 -0.455069 -4.476433 12.347604 -0.038102 0.029894 -0.001287 -0.431726 -3.425387 13.809656 -4.147268 -6.278106 -4.399178 0.000000 0.000000 0.000000 1.472555 -2.983863 10.725649 -5.242479 -3.178580 3.231415 -62.834899 -36.618024 46.765274 -18.193580 -74.757841 24.873012 0.000000 0.000000 0.000000 -3.442612 -0.831132 10.020471 18.765465 6.601114 -0.233462 63.151943 -10.598647 -29.408206 -170.278829 59.897617 -171.855155 0.000000 0.000000 0.000000 
-7.912767 79.618683 -71.169868 -179.987082 -45.143835 -179.847405 -2.712431 4.132677 12.285389 0.926741 -12.378453 -21.140257 2.410456 -2.987793 32.299070 -4.566378 -10.385269 -15.362595 0.000000 0.000000 0.000000 1.302351 6.058929 12.415893 -15.175164 9.068631 -46.044255 -0.947169 7.444883 35.968640 14.240231 7.902451 1.259947 0.000000 0.000000 0.000000 2.865257 8.285949 -3.150802 -0.626964 -4.549323 -7.102989 -0.394029 -4.695823 12.492618 -0.030339 0.117704 -0.039921 -0.428290 -3.463193 14.039482 -3.619807 -6.462782 -3.938486 0.000000 0.000000 0.000000 1.548272 -3.017388 10.796484 -6.032586 -2.719794 3.575675 -62.463747 -36.817790 46.332455 -18.087688 -73.961059 25.116537 0.000000 0.000000 0.000000 -3.461918 -0.788540 10.187397 19.146731 6.893686 -0.091443 62.862541 -10.604942 -29.456827 -170.139384 59.695245 -171.529314 0.000000 0.000000 0.000000 
-9.348891 79.510887 -73.172134 179.959461 -49.361832 -179.828540 -3.107501 2.823401 12.456609 2.013626 -13.650479 -19.779883 2.439548 -3.262511 32.605889 -4.900057 -11.290830 -15.782043 0.000000 0.000000 0.000000 1.023191 5.842123 12.135139 -15.837945 10.728156 -45.455008 -0.783469 8.997791 35.341479 14.413163 7.218467 1.281998 0.000000 0.000000 0.000000 2.883960 8.165969 -3.482251 -0.387762 -4.349905 -7.650919 -0.348261 -4.731902 12.648558 -0.030758 0.210537 -0.036907 -0.415653 -3.554042 14.225956 -3.150258 -6.558167 -3.428551 0.000000 0.000000 0.000000 1.584728 -3.150981 10.841091 -6.611554 -2.471008 3.904770 -62.159455 -37.184144 46.319129 -17.001744 -73.152412 24.302013 0.000000 0.000000 0.000000 -3.480007 -0.965822 10.340118 19.580103 7.245950 0.092225 62.693111 -10.449310 -29.635740 -169.729982 59.567692 -170.937273 0.000000 0.000000 0.000000 
